<?xml version="1.0" encoding="utf-8"?>
<!-- Generator: Adobe Illustrator 19.0.0, SVG Export Plug-In . SVG Version: 6.00 Build 0)  -->
<svg version="1.1" id="Layer_1" xmlns="http://www.w3.org/2000/svg" xmlns:xlink="http://www.w3.org/1999/xlink" x="0px" y="0px"
	 viewBox="0 0 131 99" style="enable-background:new 0 0 131 99;" xml:space="preserve">
<style type="text/css">
	.st0{fill:#215959;}
</style>
<g id="XMLID_4_">
	<g id="XMLID_5_">
		<path id="XMLID_11_" class="st0" d="M65,30.3c-0.3-0.2-0.7-0.3-1.1-0.3c-1.2,0-2.1,1-2.1,2.1c0,0.4,0.1,0.7,0.3,1.1L65,30.3z"/>
		<path id="XMLID_8_" class="st0" d="M96,62.7c2.9-3.6,3.5-7.9,1.5-9.5c-1.9-1.5-5.5-0.2-8.3,2.9c-2.6-0.7-5-0.6-6.9,0.6
			c-3.8,2.1-5.2,7.1-5.8,10.8c-0.1,0.6-0.2,1.2-0.2,1.8c-0.9,6.5-1.7,12.6-9.4,12.6c-0.1,0-0.3,0-0.4,0c-2.2-0.1-3.8-0.7-4.8-2.1
			c-1.9-2.5-1.6-6.5-1.4-8.2c0.8-0.3,1.3-1.1,1.3-2l0.1-3.3l4.1-1.2c0.9-0.3,1.5-1,1.6-1.9c3.4-1.8,5.6-4.3,6.8-7.3
			c3.3-8.7-3.8-18.8-4.1-19.2c-0.1-0.1-0.2-0.2-0.2-0.2c0.2-0.5,0.2-0.9-0.2-1.1c-0.5-0.3-1.4-1.4-1.8-2.3l-0.8-1.6
			c-0.5-0.9-1.5-1.1-2.2-0.4l-2.1,2c-0.8,0.7-0.6,1.7,0.3,2.2l1.5,0.8c0.9,0.5,1.9,1.4,2.3,2c0.2,0.4,0.8,0.5,1.4,0.2
			c0.6,0.9,6.4,9.7,3.8,16.8c-0.9,2.4-2.8,4.4-5.6,6c-0.5-0.3-1.2-0.4-1.8-0.2l-5,1.5l-5.3-1.7c-0.6-0.2-1.2-0.1-1.8,0.2
			c-2.5-1.5-4.3-3.4-5.1-5.7C44.4,47.5,51,38.1,51.1,38c0,0,0,0,0,0c0,0,0.2,0.1,0.3,0.3c0.2,0.2,0.6-0.2,0.9-0.8
			c0.3-0.6,1.3-1.5,2.3-2l1.5-0.8c0.9-0.5,1.1-1.5,0.3-2.2l-2.1-2c-0.8-0.7-1.8-0.6-2.2,0.4l-0.8,1.6c-0.5,0.9-1.3,2-1.8,2.3
			c-0.5,0.3-0.8,0.8-0.5,1l0.4,0.4c-0.1,0.1-0.2,0.2-0.3,0.3c-0.3,0.4-7.4,10.5-4.1,19.2c1.1,2.9,3.2,5.3,6.3,7.1
			c0.1,0.9,0.7,1.6,1.6,1.9l4.3,1.4L57,69.4c0,0.7,0.3,1.3,0.7,1.7c-0.3,2-0.7,6.9,1.8,10.2c1.5,2,3.8,3,6.7,3.1c0.2,0,0.3,0,0.5,0
			c9.9,0,11-8.2,11.8-14.8c0.1-0.6,0.2-1.2,0.2-1.7c0.6-4.5,2.3-7.7,4.5-9c1.1-0.6,2.5-0.8,4.1-0.6c-2,3.2-2.2,6.6-0.4,8
			C89.1,67.9,93.1,66.3,96,62.7z M92.3,59.7c-1.1,1.4-2.6,2-3.4,1.4c-0.6-0.5-0.6-1.4-0.1-2.5c0.4,0.1,0.8,0.3,1.3,0.5
			c0.6,0.3,1.4,0,1.7-0.7c0.3-0.6,0-1.4-0.7-1.7c-0.2-0.1-0.4-0.1-0.6-0.2c0.9-0.6,1.8-0.8,2.4-0.4C93.6,56.7,93.3,58.3,92.3,59.7z"
			/>
		<path id="XMLID_7_" class="st0" d="M57.3,31.7c0-1.2-1-2.1-2.1-2.1c-0.4,0-0.8,0.1-1.1,0.3l3,2.8C57.2,32.5,57.3,32.1,57.3,31.7z"
			/>
		<path id="XMLID_6_" class="st0" d="M99.6,54.5c-0.5-0.3-0.6,0.3-0.5,1.3c0.2,1.6-0.1,3.9-2.1,6.5c-2.5,3.3-4.8,4.4-6.3,4.8
			c-1,0.3-1.3,0.5-0.6,0.9c0.7,0.4,2.1,0.5,3,0c1.1-0.7,2.8-2.1,4.8-4.6c2.2-2.8,2.8-5.1,2.8-6.5C100.9,55.8,100.1,54.8,99.6,54.5z"
			/>
	</g>
</g>
<path id="XMLID_17_" class="st0" d="M80.8,10.4c13,0,23.5,10.5,23.5,23.5c0,3.1-0.6,6-1.7,8.7c10,2.7,17.4,11.7,17.4,22.6
	c0,13-10.5,23.5-23.5,23.5H30c-10.8,0-19.5-8.8-19.5-19.6S19.2,49.5,30,49.5c0.6,0,1.2,0.1,1.7,0.2c-1.1-2.4-1.7-5.1-1.7-8
	c0-10.8,8.8-19.5,19.5-19.5c3.5,0,6.8,1,9.6,2.6C62.8,16.3,71.1,10.4,80.8,10.4 M80.8,2.6c-10,0-19.2,4.7-25,12.5
	c-2.1-0.5-4.1-0.7-6.3-0.7c-15.1,0-27.4,12.3-27.4,27.4c0,0.4,0,0.8,0,1.1C10.9,46.2,2.6,56.7,2.6,69c0,15.1,12.3,27.4,27.4,27.4
	h66.5c17.3,0,31.3-14,31.3-31.3c0-11.4-6.3-21.7-15.9-27.2c0.2-1.4,0.3-2.7,0.3-4.1C112.1,16.6,98.1,2.6,80.8,2.6L80.8,2.6z"/>
</svg>
