<?xml version="1.0" encoding="utf-8"?>
<!-- Generator: Adobe Illustrator 19.0.0, SVG Export Plug-In . SVG Version: 6.00 Build 0)  -->
<svg version="1.1" id="Layer_1" xmlns="http://www.w3.org/2000/svg" xmlns:xlink="http://www.w3.org/1999/xlink" x="0px" y="0px"
	 viewBox="0 0 372 89" style="enable-background:new 0 0 372 89;" xml:space="preserve">
<style type="text/css">
	.st0{fill:none;}
	.st1{fill:#8D8D8F;}
	.st2{font-family:'SourceSansPro-Bold';}
	.st3{font-size:48px;}
	.st4{fill:#215959;}
</style>
<rect id="XMLID_2_" x="101.8" y="32.2" class="st0" width="265.2" height="46.9"/>
<text id="XMLID_1_" transform="matrix(1 0 0 1 101.7885 65.873)" class="st1 st2 st3">Stethoscope</text>
<g id="XMLID_4_">
	<g id="XMLID_5_">
		<path id="XMLID_11_" class="st4" d="M53.8,22c-0.2-0.1-0.5-0.2-0.8-0.2c-0.8,0-1.5,0.7-1.5,1.5c0,0.3,0.1,0.5,0.2,0.7L53.8,22z"/>
		<path id="XMLID_8_" class="st4" d="M75,44.2c2-2.5,2.4-5.4,1-6.5c-1.3-1-3.8-0.2-5.7,2c-1.8-0.5-3.4-0.4-4.8,0.4
			c-2.6,1.5-3.6,4.8-4,7.4c-0.1,0.4-0.1,0.8-0.2,1.2c-0.6,4.4-1.1,8.6-6.4,8.6c-0.1,0-0.2,0-0.3,0c-1.5,0-2.6-0.5-3.3-1.4
			c-1.3-1.7-1.1-4.5-0.9-5.6c0.5-0.2,0.9-0.7,0.9-1.4l0.1-2.3l2.8-0.8c0.6-0.2,1-0.7,1.1-1.3c2.3-1.3,3.9-2.9,4.7-5
			c2.2-5.9-2.6-12.9-2.8-13.1c0-0.1-0.1-0.1-0.2-0.2c0.1-0.3,0.1-0.6-0.1-0.8c-0.4-0.2-0.9-0.9-1.3-1.6l-0.6-1.1
			c-0.3-0.6-1-0.7-1.5-0.2l-1.4,1.4c-0.5,0.5-0.4,1.2,0.2,1.5l1,0.5c0.6,0.3,1.3,0.9,1.6,1.3c0.2,0.3,0.6,0.3,1,0.1
			c0.4,0.6,4.4,6.7,2.6,11.5c-0.6,1.7-1.9,3-3.8,4.1c-0.4-0.2-0.8-0.3-1.2-0.1l-3.4,1l-3.6-1.2c-0.4-0.1-0.8-0.1-1.2,0.1
			c-1.7-1-2.9-2.3-3.5-3.9c-1.9-5.1,2.6-11.5,2.6-11.5c0,0,0,0,0,0c0,0,0.1,0.1,0.2,0.2c0.1,0.1,0.4-0.1,0.6-0.5
			c0.2-0.4,0.9-1,1.6-1.3l1-0.5c0.6-0.3,0.7-1,0.2-1.5l-1.4-1.4c-0.5-0.5-1.2-0.4-1.5,0.2l-0.6,1.1c-0.3,0.6-0.9,1.3-1.3,1.6
			c-0.4,0.2-0.5,0.6-0.4,0.7l0.3,0.3c-0.1,0.1-0.1,0.1-0.2,0.2c-0.2,0.3-5.1,7.2-2.8,13.1c0.8,2,2.2,3.6,4.3,4.8
			c0.1,0.6,0.5,1.1,1.1,1.3l3,0.9l-0.1,2.2c0,0.5,0.2,0.9,0.5,1.2c-0.2,1.4-0.5,4.7,1.3,7c1,1.3,2.6,2,4.6,2.1c0.1,0,0.2,0,0.3,0
			c6.8,0,7.5-5.6,8.1-10.1c0.1-0.4,0.1-0.8,0.2-1.2c0.4-3.1,1.5-5.3,3.1-6.2c0.8-0.4,1.7-0.6,2.8-0.4c-1.3,2.2-1.5,4.5-0.3,5.5
			C70.3,47.7,73,46.6,75,44.2z M72.4,42.1c-0.7,0.9-1.8,1.3-2.3,0.9c-0.4-0.3-0.4-1-0.1-1.7c0.3,0.1,0.6,0.2,0.9,0.3
			c0.4,0.2,0.9,0,1.1-0.5c0.2-0.4,0-0.9-0.5-1.1c-0.1-0.1-0.3-0.1-0.4-0.1c0.6-0.4,1.2-0.6,1.6-0.3C73.3,40.1,73.2,41.2,72.4,42.1z"
			/>
		<path id="XMLID_7_" class="st4" d="M48.5,23c0-0.8-0.7-1.5-1.5-1.5c-0.3,0-0.6,0.1-0.8,0.2l2,1.9C48.4,23.5,48.5,23.3,48.5,23z"/>
		<path id="XMLID_6_" class="st4" d="M77.4,38.6c-0.4-0.2-0.4,0.2-0.4,0.9c0.1,1.1-0.1,2.7-1.4,4.5c-1.7,2.2-3.3,3-4.3,3.3
			c-0.7,0.2-0.9,0.3-0.4,0.6c0.5,0.3,1.5,0.4,2.1,0c0.8-0.5,1.9-1.4,3.3-3.2c1.5-1.9,1.9-3.5,1.9-4.5C78.3,39.5,77.8,38.8,77.4,38.6
			z"/>
	</g>
</g>
<path id="XMLID_17_" class="st4" d="M64.6,8.4c8.9,0,16,7.2,16,16c0,2.1-0.4,4.1-1.2,6c6.8,1.8,11.9,8,11.9,15.4c0,8.9-7.2,16-16,16
	H29.8c-7.4,0-13.4-6-13.4-13.4s6-13.4,13.4-13.4c0.4,0,0.8,0.1,1.2,0.1c-0.8-1.7-1.2-3.5-1.2-5.5c0-7.4,6-13.4,13.4-13.4
	c2.4,0,4.6,0.7,6.6,1.8C52.2,12.5,58,8.4,64.6,8.4 M64.6,3.1c-6.8,0-13.1,3.2-17.1,8.5c-1.4-0.3-2.8-0.5-4.3-0.5
	c-10.3,0-18.7,8.4-18.7,18.7c0,0.3,0,0.5,0,0.8c-7.7,2.3-13.4,9.5-13.4,17.9c0,10.3,8.4,18.7,18.7,18.7h45.5
	c11.8,0,21.4-9.6,21.4-21.4c0-7.8-4.3-14.8-10.9-18.6c0.1-0.9,0.2-1.9,0.2-2.8C86,12.7,76.4,3.1,64.6,3.1L64.6,3.1z"/>
</svg>
